<svg width="42" height="13" viewBox="0 0 42 13" fill="none" xmlns="http://www.w3.org/2000/svg">
<g clip-path="url(#clip0_886_648)">
<path d="M3.39694 13L2.03857 11.684V3.7805L3.39694 2.46448V13Z" fill="#1E3769"/>
<path d="M1.3591 11.026L0.000732422 9.70994V5.75486L1.3591 4.43884V11.026Z" fill="#1E3769"/>
<path d="M4.07617 11.026L5.44141 9.70994V5.75486L4.07617 4.43884V11.026Z" fill="#00B2E3"/>
<path d="M17.4213 7.49054C17.5643 7.36093 17.676 7.20237 17.7485 7.02617C17.8209 6.84996 17.8524 6.66044 17.8407 6.4711C17.8407 5.5421 17.2147 5.09058 15.9229 5.09058H13.4324V10.355H16.1824C17.5143 10.355 18.2869 9.78079 18.2869 8.73575C18.2947 8.46666 18.2154 8.20194 18.0602 7.97866C17.905 7.75537 17.6816 7.5847 17.4213 7.49054ZM16.0297 7.22587H14.3913V5.93544H15.9562C16.7954 5.93544 16.8684 6.2194 16.8684 6.50335C16.8684 6.96785 16.5953 7.18731 16.0228 7.18731L16.0297 7.22587ZM14.3913 8.03883H16.1028C17.1684 8.03883 17.3081 8.38729 17.3081 8.72909C17.3081 9.27106 16.9618 9.49052 16.0963 9.49052H14.3913V8.03883Z" fill="#1E3769"/>
<path d="M25.8187 10.1615C25.7502 8.53113 25.5947 6.90525 25.3526 5.29044V5.12287H24.4802L22.5704 8.43886L20.6526 5.09692H19.7918V5.26449C19.553 6.88809 19.4019 8.52267 19.3391 10.1615V10.3617H20.2781V10.1745C20.2945 9.00498 20.3813 7.83737 20.5379 6.67762L22.3026 9.65742H22.8888L24.647 6.67762C24.7737 7.71634 24.8735 9.03237 24.9068 10.1745V10.3617H25.8451L25.8187 10.1615Z" fill="#1E3769"/>
<path d="M10.8683 7.34849L9.98936 7.16795C9.32357 7.03263 9.09054 6.87102 9.09054 6.52291C9.09054 6.1748 9.54321 5.92274 10.2958 5.92274C10.7552 5.93392 11.2078 6.03255 11.6278 6.21301L12.2538 5.63247L12.134 5.56797C11.5731 5.25464 10.936 5.09211 10.2886 5.09716C8.95666 5.09716 8.1378 5.66508 8.1378 6.53448C8.1378 7.30221 8.65705 7.77337 9.72268 7.97951L10.6349 8.16671C11.4805 8.33428 11.4805 8.66346 11.4805 8.81175C11.4805 9.26328 11.0011 9.53426 10.2018 9.53426C9.61482 9.52469 9.03989 9.37154 8.53041 9.08904L7.92432 9.65696L8.01767 9.72146C8.68064 10.1475 9.45979 10.3721 10.2553 10.3665C11.5873 10.3665 12.4061 9.77931 12.4061 8.79212C12.4061 8.01807 11.9202 7.57916 10.8411 7.35971" fill="#1E3769"/>
<path d="M29.4613 7.10311C29.086 7.11421 28.7261 7.25041 28.4424 7.48873V5.81934H28.0161V10.1944C28.4794 10.2945 28.9527 10.3442 29.4273 10.3427C29.6452 10.3437 29.8611 10.3019 30.0619 10.2198C30.2626 10.1377 30.4441 10.017 30.5954 9.86507C30.7466 9.71309 30.8645 9.53296 30.9419 9.33559C31.0192 9.13822 31.0545 8.9277 31.0455 8.71676C31.0552 8.50896 31.0215 8.3014 30.9463 8.10656C30.8712 7.91171 30.7561 7.73361 30.608 7.58297C30.46 7.43233 30.282 7.31225 30.0848 7.22997C29.8876 7.14768 29.6753 7.10489 29.4606 7.10416L29.4613 7.10311ZM29.4613 9.94268C29.1194 9.94583 28.778 9.91552 28.4424 9.85224V7.91571C28.5688 7.77441 28.7254 7.66141 28.9013 7.58454C29.0772 7.50766 29.2683 7.46875 29.4613 7.4705C29.6297 7.46312 29.7978 7.49103 29.9541 7.55231C30.1103 7.6136 30.2511 7.70682 30.3668 7.82562C30.4824 7.94442 30.5703 8.086 30.6244 8.24069C30.6784 8.39539 30.6974 8.55956 30.68 8.72201C30.6934 8.88213 30.6715 9.04319 30.6155 9.19442C30.5596 9.34565 30.471 9.48357 30.3556 9.59897C30.2403 9.71438 30.1008 9.80461 29.9466 9.86364C29.7924 9.92267 29.6269 9.94914 29.4613 9.94128V9.94268Z" fill="#00B2E3"/>
<path d="M34.6025 9.09045V7.15498H34.291L34.2443 7.38075C33.9193 7.19092 33.5451 7.09473 33.1657 7.10345C32.9478 7.1016 32.7318 7.14256 32.5308 7.22386C32.3297 7.30516 32.1477 7.42511 31.9959 7.57646C31.844 7.72781 31.7254 7.90742 31.6472 8.10444C31.569 8.30145 31.5329 8.51178 31.541 8.72271C31.5253 8.93195 31.5546 9.14206 31.627 9.33977C31.6995 9.53747 31.8135 9.71845 31.9618 9.87127C32.1102 10.0241 32.2897 10.1454 32.4889 10.2276C32.6881 10.3098 32.9028 10.351 33.1193 10.3486C33.3305 10.3583 33.5413 10.3236 33.7373 10.2468C33.9333 10.1701 34.1099 10.0532 34.2548 9.90411L34.3482 10.2978H34.7462V10.2526C34.664 9.86991 34.6159 9.4811 34.6025 9.09045ZM33.119 9.94197C32.9614 9.93865 32.8063 9.90369 32.6634 9.8393C32.5206 9.7749 32.393 9.68248 32.2889 9.56788C32.1848 9.45328 32.1064 9.31899 32.0586 9.17351C32.0109 9.02803 31.9948 8.87452 32.0114 8.72271C31.9994 8.5656 32.0212 8.40779 32.0756 8.25932C32.1299 8.11084 32.2156 7.97494 32.327 7.86027C32.4385 7.74559 32.5734 7.65465 32.7232 7.59322C32.8729 7.53179 33.0342 7.50121 33.1968 7.50344C33.5578 7.49949 33.9121 7.59822 34.2157 7.7874V9.31657C34.1365 9.52854 33.9833 9.70706 33.7827 9.8213C33.582 9.93554 33.3465 9.97835 33.1168 9.94232L33.119 9.94197Z" fill="#00B2E3"/>
<path d="M36.9332 7.10319C36.5429 7.11807 36.1694 7.26138 35.8744 7.50949L35.8278 7.15472H35.4949V10.2968H35.9143V7.94805C36.0322 7.81035 36.1797 7.6992 36.3465 7.62231C36.5133 7.54542 36.6953 7.50465 36.88 7.50283C37.0104 7.48262 37.1439 7.49275 37.2694 7.53239C37.395 7.57203 37.509 7.64004 37.602 7.73081C37.6951 7.82157 37.7645 7.93248 37.8045 8.05437C37.8446 8.17627 37.8541 8.30565 37.8324 8.43183V10.2965H38.2518V8.36136C38.2687 8.19037 38.2461 8.01787 38.1856 7.85642C38.125 7.69497 38.028 7.54864 37.9017 7.42811C37.7754 7.30757 37.6229 7.21585 37.4553 7.15964C37.2878 7.10343 37.1094 7.08414 36.9332 7.10319Z" fill="#00B2E3"/>
<path d="M40.0029 8.41948L41.8483 7.12905H41.1825C41.0378 7.2258 39.8108 8.01282 39.5709 8.21299V5.81934H39.1504V10.2968H39.5698V8.54673C39.8162 8.84366 41.2212 10.1274 41.3945 10.2824H42.0017L40.0029 8.41948Z" fill="#00B2E3"/>
<path d="M9.77518 2.16059C9.78654 2.28146 9.76763 2.40321 9.72007 2.5155C9.67252 2.62779 9.59771 2.72731 9.50199 2.80563C9.26964 2.96461 8.98626 3.03785 8.70304 3.01211C8.58126 3.02346 8.45863 3.02346 8.33685 3.01211C8.23181 2.98572 8.13126 2.94474 8.03833 2.89046V2.56794C8.2458 2.66473 8.4739 2.71277 8.70412 2.70817C8.88467 2.71984 9.06378 2.67026 9.21071 2.56794C9.27286 2.52189 9.3228 2.46217 9.3564 2.39371C9.39 2.32525 9.40629 2.25003 9.40393 2.17426C9.40309 2.0764 9.36524 1.98223 9.29755 1.90958C9.18437 1.80014 9.05407 1.70868 8.91146 1.6386C8.75009 1.56326 8.60881 1.45289 8.4986 1.31608C8.42325 1.20262 8.38388 1.07026 8.38534 0.935362C8.38216 0.825096 8.40374 0.715476 8.4486 0.614088C8.49346 0.512701 8.56052 0.421967 8.64514 0.348166C8.7453 0.267144 8.86096 0.206055 8.98551 0.168398C9.11007 0.130741 9.24106 0.117255 9.371 0.128712C9.49178 0.126034 9.61246 0.136856 9.73068 0.160964C9.85472 0.189396 9.97529 0.230527 10.0903 0.283662L9.95719 0.57393C9.86614 0.521058 9.76731 0.48193 9.6641 0.457893C9.56782 0.437914 9.46942 0.429204 9.371 0.431951C9.21731 0.422116 9.06534 0.46811 8.94475 0.560959C8.89168 0.605619 8.84973 0.661329 8.82204 0.72392C8.79434 0.786511 8.78161 0.854361 8.78481 0.922391C8.78004 0.982626 8.79151 1.04303 8.8181 1.09767C8.84075 1.15238 8.87736 1.20063 8.92449 1.2379C9.01044 1.30805 9.10426 1.36861 9.20419 1.41844C9.34299 1.49195 9.47255 1.58076 9.59028 1.68312C9.65719 1.74345 9.71149 1.8157 9.75022 1.89591C9.77741 1.9815 9.78591 2.07164 9.77518 2.16059Z" fill="#1E3769"/>
<path d="M11.541 2.97459L11.8341 1.65191C11.8507 1.56667 11.8618 1.48049 11.8673 1.3939C11.8728 1.32038 11.8516 1.24733 11.8073 1.18741C11.7807 1.15953 11.7477 1.13803 11.711 1.12458C11.6744 1.11114 11.635 1.10613 11.596 1.10994C11.4792 1.11363 11.3669 1.1544 11.2765 1.22597C11.1602 1.31358 11.0666 1.42631 11.0033 1.55516C10.9135 1.71479 10.8501 1.887 10.8151 2.06558L10.6154 2.97459H10.2825L10.742 0.877864H11.0217L10.975 1.26349C11.0653 1.1354 11.1808 1.02581 11.3148 0.940965C11.4203 0.875258 11.5429 0.839774 11.6683 0.8386C11.7316 0.835158 11.795 0.844264 11.8545 0.865361C11.9141 0.886458 11.9685 0.919103 12.0146 0.961298C12.1004 1.05885 12.1497 1.18166 12.1543 1.30976C12.2499 1.16842 12.3746 1.04766 12.5205 0.954988C12.6348 0.880948 12.7687 0.840526 12.9062 0.8386C13.0473 0.831599 13.1857 0.877839 13.2923 0.967608C13.3403 1.0188 13.3769 1.07903 13.3998 1.14453C13.4227 1.21003 13.4314 1.27941 13.4254 1.34832C13.4222 1.46314 13.4089 1.57748 13.3856 1.69012L13.0994 2.98055H12.7665L13.0596 1.65787C13.0804 1.5666 13.0937 1.47388 13.0994 1.38057C13.1025 1.30936 13.0765 1.23983 13.0271 1.18706C12.9987 1.16138 12.965 1.14184 12.9283 1.12975C12.8915 1.11766 12.8526 1.1133 12.8139 1.11695C12.7004 1.12107 12.5909 1.15943 12.5009 1.22668C12.3883 1.31235 12.2952 1.41979 12.2277 1.54218C12.1415 1.69321 12.0805 1.85648 12.0468 2.02596L11.8402 2.9809L11.541 2.97459Z" fill="#1E3769"/>
<path d="M15.1107 0.838606C15.2251 0.837221 15.337 0.871105 15.4302 0.935362C15.53 1.00383 15.6083 1.09759 15.6567 1.20635L15.7899 0.877168H16.0298L15.5703 2.9739H15.3636V2.57425C15.2838 2.69764 15.1754 2.8014 15.0471 2.87737C14.9189 2.95335 14.7742 2.99947 14.6244 3.01211C14.5413 3.0159 14.4585 3.00031 14.3829 2.96663C14.3074 2.93296 14.2413 2.88219 14.1902 2.8186C14.0808 2.66813 14.0269 2.48635 14.0371 2.30256C14.0338 2.0507 14.0812 1.80063 14.1768 1.56638C14.2559 1.35869 14.3889 1.17423 14.5629 1.03072C14.715 0.903806 14.91 0.835443 15.1107 0.838606ZM14.7377 2.74182C14.8829 2.73344 15.019 2.67057 15.1172 2.56654C15.252 2.43674 15.3565 2.28051 15.4237 2.10835C15.501 1.92827 15.5416 1.73544 15.5435 1.54044C15.5494 1.42501 15.5088 1.31187 15.4302 1.22493C15.3942 1.18647 15.3499 1.15614 15.3004 1.13609C15.251 1.11604 15.1976 1.10675 15.144 1.10889C15.0718 1.10981 15.0005 1.1246 14.9342 1.1524C14.8679 1.1802 14.808 1.22046 14.7579 1.27085C14.633 1.39717 14.5396 1.54945 14.4847 1.71607C14.4175 1.90761 14.3838 2.10868 14.3849 2.31098C14.373 2.4281 14.4063 2.54533 14.4782 2.64016C14.5102 2.67575 14.5504 2.7036 14.5955 2.7215C14.6406 2.73939 14.6894 2.74683 14.738 2.74322L14.7377 2.74182Z" fill="#1E3769"/>
<path d="M17.7744 0.83887C17.8542 0.831054 17.9346 0.831054 18.0143 0.83887L17.942 1.12914C17.8734 1.11968 17.8039 1.11968 17.7353 1.12914C17.612 1.13046 17.4925 1.17126 17.3956 1.24518C17.2846 1.33258 17.1919 1.43966 17.1224 1.56068C17.0448 1.70333 16.9865 1.85509 16.9491 2.01221L16.7421 2.97451H16.4092L16.8687 0.877783H17.1419L17.1021 1.2634C17.1724 1.1714 17.2503 1.08511 17.3351 1.00539C17.3917 0.953893 17.4571 0.912368 17.5284 0.882691C17.6054 0.848087 17.69 0.832547 17.7748 0.837468L17.7744 0.83887Z" fill="#1E3769"/>
<path d="M18.8334 2.74839C18.928 2.7477 19.0221 2.73473 19.1131 2.70983V2.95523L18.9532 3.00676H18.7932C18.6561 3.01636 18.5203 2.97486 18.4136 2.89072C18.3674 2.84637 18.3316 2.79288 18.3086 2.7339C18.2856 2.67491 18.276 2.61182 18.2805 2.54892C18.2824 2.4531 18.2957 2.35781 18.3203 2.26496L18.5667 1.11651H18.2273L18.2606 0.976287L18.6203 0.827998L18.8667 0.395752H19.0595L18.9532 0.873221H19.4938L19.4471 1.11862H18.9065L18.6532 2.27338C18.6307 2.35566 18.6173 2.44005 18.6134 2.52508C18.6096 2.56027 18.6149 2.59581 18.6289 2.6285C18.6429 2.66118 18.665 2.68998 18.6934 2.71229C18.7342 2.7398 18.7838 2.75257 18.8334 2.74839Z" fill="#1E3769"/>
<path d="M22.2494 0.180542C22.8222 0.180542 23.1019 0.393335 23.1019 0.825581C23.1102 0.993489 23.0504 1.15789 22.9354 1.28377C22.8039 1.41157 22.6336 1.49523 22.4495 1.5225C22.5869 1.5523 22.7094 1.62754 22.7958 1.7353C22.8778 1.83863 22.9202 1.96643 22.9155 2.09673C22.9226 2.21964 22.8991 2.34241 22.847 2.45467C22.7948 2.56693 22.7156 2.6654 22.6159 2.74177C22.3851 2.90594 22.103 2.98803 21.817 2.97419H20.9041L21.5101 0.180542H22.2494ZM21.297 2.70952H21.8231C22.0184 2.72273 22.2121 2.66776 22.3692 2.55457C22.4342 2.50247 22.4856 2.43615 22.519 2.36106C22.5524 2.28597 22.5669 2.20426 22.5613 2.12267C22.5662 2.05872 22.5557 1.99454 22.5306 1.93522C22.5055 1.87589 22.4664 1.82304 22.4166 1.78087C22.3031 1.69841 22.1654 1.65322 22.0236 1.65186H21.5568L21.297 2.70952ZM21.5901 1.38684H22.0761C22.2513 1.39632 22.4248 1.34868 22.5689 1.25152C22.628 1.2061 22.6755 1.14816 22.7078 1.08215C22.7401 1.01615 22.7563 0.943845 22.7552 0.870804C22.7595 0.814566 22.7496 0.758167 22.7264 0.706449C22.7032 0.65473 22.6674 0.609237 22.6221 0.573876C22.4999 0.496605 22.3548 0.460392 22.2092 0.47081H21.7898L21.5901 1.38684Z" fill="#1E3769"/>
<path d="M24.5732 0.838542C24.6876 0.837157 24.7995 0.871041 24.8927 0.935298C24.9899 1.00466 25.0658 1.09833 25.1123 1.20628L25.2455 0.877104H25.4988L25.0392 2.97383H24.7794L24.8261 2.57384C24.7452 2.69776 24.6358 2.80183 24.5064 2.87787C24.377 2.9539 24.2312 2.99983 24.0803 3.01204C23.9984 3.01562 23.9169 2.99987 23.8426 2.96617C23.7684 2.93246 23.7037 2.8818 23.6541 2.81853C23.5393 2.67036 23.4826 2.48745 23.4942 2.3025C23.4908 2.05064 23.5383 1.80057 23.6338 1.56631C23.7145 1.35942 23.8472 1.1753 24.0199 1.03065C24.175 0.905104 24.3711 0.837019 24.5732 0.838542ZM24.1936 2.74176C24.3388 2.73338 24.475 2.6705 24.5732 2.56648C24.7102 2.43729 24.817 2.28101 24.8862 2.10829C24.9584 1.92699 24.9967 1.73469 24.9994 1.54037C25.0073 1.42585 24.9692 1.31282 24.893 1.22486C24.8557 1.18622 24.8102 1.15585 24.7596 1.13582C24.709 1.1158 24.6545 1.10659 24.6 1.10883C24.4565 1.11216 24.3201 1.17009 24.2204 1.27009C24.0912 1.39424 23.9951 1.54707 23.9407 1.7153C23.8734 1.90707 23.8396 2.10838 23.8408 2.31091C23.8325 2.42772 23.8654 2.54381 23.9342 2.64009C23.9662 2.67569 24.0064 2.70354 24.0515 2.72143C24.0966 2.73932 24.1454 2.74677 24.194 2.74316L24.1936 2.74176Z" fill="#1E3769"/>
<path d="M27.1904 2.97454L27.4835 1.65185C27.5043 1.56058 27.5176 1.46786 27.5233 1.37456C27.525 1.30356 27.4992 1.23451 27.4509 1.18105C27.4209 1.15584 27.3861 1.13667 27.3484 1.12463C27.3107 1.1126 27.2709 1.10794 27.2313 1.11093C27.1061 1.11321 26.9849 1.15383 26.885 1.22697C26.7661 1.31445 26.6664 1.42411 26.5919 1.54949C26.5003 1.71083 26.4349 1.88488 26.398 2.06552L26.1982 2.97524H25.8726L26.3321 0.878509H26.6028L26.5561 1.26413C26.6568 1.134 26.7808 1.0225 26.9223 0.93495C27.0341 0.872198 27.161 0.838958 27.2903 0.838544C27.4361 0.831603 27.5789 0.880165 27.6883 0.973862C27.7361 1.02278 27.7731 1.08061 27.7971 1.14383C27.8212 1.20705 27.8316 1.27434 27.828 1.34161C27.8265 1.45874 27.8131 1.57545 27.7882 1.69007L27.5019 2.9805L27.1904 2.97454Z" fill="#1E3769"/>
<path d="M28.8951 1.90322L29.934 0.876412H30.327L29.4014 1.76685L30.0136 2.97419H29.6156L29.156 1.97403L28.8564 2.20646L28.6831 2.97419H28.3491L29.0149 0H29.3478L29.0945 1.14845C29.0447 1.40392 28.978 1.65603 28.8948 1.90322H28.8951Z" fill="#1E3769"/>
<path d="M30.8198 2.97459H30.4941L30.953 0.877509H31.2859L30.8198 2.97459ZM31.0463 0.342196C31.0433 0.278589 31.0647 0.216159 31.1064 0.166913C31.1279 0.145426 31.1538 0.128575 31.1825 0.11746C31.2112 0.106345 31.242 0.101217 31.2728 0.102409C31.2963 0.0991955 31.3203 0.101314 31.3428 0.108599C31.3653 0.115884 31.3857 0.128135 31.4025 0.144385C31.4192 0.160635 31.4319 0.18044 31.4394 0.202237C31.4469 0.224033 31.4491 0.247224 31.4458 0.26998C31.4484 0.336211 31.4245 0.400859 31.3792 0.450521C31.3603 0.472017 31.3368 0.489379 31.3104 0.501464C31.2841 0.513548 31.2553 0.520082 31.2262 0.520633C31.2016 0.521977 31.177 0.518185 31.154 0.509514C31.1311 0.500842 31.1103 0.487494 31.0932 0.470373C31.076 0.453252 31.0628 0.432759 31.0546 0.410281C31.0463 0.387804 31.0431 0.363867 31.0452 0.340093L31.0463 0.342196Z" fill="#1E3769"/>
<path d="M32.9973 2.9742L33.2904 1.65152C33.3157 1.5606 33.3334 1.46788 33.3436 1.37422C33.3469 1.30396 33.3231 1.235 33.277 1.18071C33.2136 1.12998 33.1325 1.10486 33.0505 1.1106C32.9157 1.10444 32.7832 1.14565 32.6774 1.22664C32.5547 1.31191 32.4524 1.42194 32.3778 1.54916C32.2888 1.71104 32.2259 1.88519 32.1914 2.06554L32.0105 2.97525H31.6787L32.1383 0.878526H32.4114L32.3716 1.26415C32.4712 1.13303 32.5954 1.02134 32.7378 0.934967C32.8487 0.871718 32.975 0.838427 33.1037 0.838561C33.248 0.831518 33.3893 0.880177 33.4966 0.973879C33.5463 1.02169 33.585 1.07922 33.6099 1.14263C33.6349 1.20604 33.6456 1.27388 33.6414 1.34162C33.6373 1.45895 33.6216 1.57563 33.5947 1.69008L33.315 2.98051L32.9973 2.9742Z" fill="#1E3769"/>
<path d="M36.2206 0.877503L36.1739 1.08399L35.7545 1.12921C35.8165 1.21854 35.8468 1.32496 35.841 1.43245C35.845 1.53948 35.8263 1.64618 35.7863 1.746C35.7462 1.84582 35.6855 1.93667 35.608 2.01298C35.4408 2.15961 35.2206 2.23612 34.9954 2.22578C34.9402 2.23363 34.8841 2.23363 34.8289 2.22578C34.648 2.29589 34.5557 2.37406 34.5557 2.47748C34.553 2.49945 34.5581 2.52166 34.5702 2.54041C34.5823 2.55917 34.6007 2.57333 34.6223 2.58055C34.6817 2.60363 34.7447 2.61668 34.8086 2.61911H35.0417C35.2252 2.62853 35.4025 2.68648 35.5544 2.78668C35.6095 2.83138 35.6533 2.88784 35.6821 2.95164C35.711 3.01544 35.7243 3.08484 35.7208 3.15442C35.7221 3.26121 35.696 3.36663 35.6448 3.46122C35.5937 3.55581 35.5191 3.63662 35.4278 3.6964C35.1856 3.83844 34.9046 3.90591 34.6219 3.88991C34.4129 3.90212 34.2047 3.8551 34.0227 3.75459C33.9529 3.71252 33.8958 3.65328 33.8572 3.58291C33.8186 3.51253 33.7999 3.43352 33.8031 3.35389C33.8004 3.22444 33.8506 3.09919 33.9427 3.00543C34.0752 2.89018 34.232 2.80428 34.4023 2.75373C34.3573 2.73408 34.319 2.7024 34.2919 2.66242C34.2647 2.62244 34.25 2.5758 34.2492 2.52796C34.2479 2.48552 34.2561 2.44331 34.2735 2.4043C34.2908 2.36529 34.3167 2.33044 34.3495 2.3022C34.4323 2.22815 34.5267 2.16722 34.6292 2.12166C34.5461 2.08122 34.4768 2.01856 34.4294 1.94112C34.3751 1.85836 34.3473 1.76187 34.3495 1.66382C34.3417 1.43983 34.4255 1.22191 34.5825 1.05734C34.6604 0.978365 34.7547 0.91626 34.8592 0.875113C34.9636 0.833966 35.0759 0.814709 35.1886 0.818608C35.2898 0.818725 35.3905 0.83169 35.4882 0.857171L36.2206 0.877503ZM34.1229 3.35389C34.1199 3.40018 34.1301 3.44638 34.1525 3.48739C34.1748 3.52841 34.2084 3.56264 34.2496 3.58632C34.3639 3.65258 34.4961 3.68409 34.6292 3.67676C34.8259 3.68734 35.0218 3.64487 35.1951 3.55407C35.2569 3.51966 35.3081 3.46978 35.3432 3.40965C35.3784 3.34952 35.3962 3.28135 35.3948 3.21227C35.3957 3.17474 35.3863 3.13767 35.3676 3.10479C35.349 3.07191 35.3216 3.04441 35.2884 3.02506C35.1769 2.96879 35.0543 2.93583 34.9288 2.92831L34.6089 2.89816C34.4757 2.92197 34.3516 2.97982 34.2492 3.06573C34.209 3.10284 34.177 3.14756 34.1553 3.19713C34.1335 3.24669 34.1225 3.30005 34.1229 3.35389ZM34.6751 1.67118C34.6724 1.71706 34.6793 1.763 34.6953 1.80625C34.7114 1.8495 34.7362 1.88917 34.7685 1.92289C34.8369 1.97974 34.9248 2.00964 35.0149 2.00667C35.111 2.00965 35.2052 1.98002 35.2812 1.92289C35.3637 1.86989 35.427 1.79313 35.4621 1.70343C35.5052 1.60774 35.5279 1.50459 35.5287 1.4002C35.5331 1.31273 35.5021 1.22705 35.4422 1.16146C35.3714 1.10414 35.2812 1.07429 35.1889 1.07768C35.094 1.07579 35.0008 1.1029 34.9226 1.15515C34.8401 1.20815 34.7768 1.28491 34.7417 1.3746C34.6994 1.46819 34.6767 1.56902 34.6751 1.67118Z" fill="#1E3769"/>
<path d="M38.5246 3.01311C38.4028 3.01552 38.2835 2.97933 38.1848 2.91004C38.0998 2.84027 38.037 2.74846 38.0039 2.64536L37.8642 2.97454H37.6189L38.2847 0H38.6103C38.5438 0.309549 38.4906 0.541973 38.4573 0.709543C38.424 0.877114 38.3708 1.06432 38.3126 1.28377C38.4135 1.15211 38.5374 1.03857 38.6787 0.948278C38.7878 0.880068 38.9151 0.844243 39.0449 0.845212C39.1273 0.841716 39.2094 0.856806 39.2848 0.889291C39.3601 0.921777 39.4267 0.970771 39.4791 1.03241C39.5905 1.18448 39.6446 1.36902 39.6322 1.55511C39.6376 1.80655 39.5924 2.05661 39.499 2.29129C39.4252 2.49652 39.2965 2.67908 39.126 2.8203C38.9592 2.95675 38.7447 3.02601 38.5268 3.01381L38.5246 3.01311ZM38.8908 1.10989C38.7426 1.11869 38.604 1.18352 38.5047 1.29043C38.3673 1.41941 38.2601 1.57557 38.1906 1.74827C38.1166 1.92663 38.0782 2.11695 38.0774 2.30917C38.0721 2.36708 38.0789 2.42541 38.0971 2.48078C38.1154 2.53615 38.1448 2.58745 38.1837 2.63169C38.2257 2.67119 38.276 2.70144 38.3311 2.72037C38.3863 2.73931 38.445 2.74649 38.5032 2.74142C38.5708 2.74015 38.6375 2.72578 38.6992 2.69917C38.761 2.67256 38.8167 2.63424 38.8629 2.58647C38.9906 2.46484 39.0845 2.31401 39.1361 2.14791C39.2038 1.95249 39.2375 1.74755 39.236 1.54143C39.236 1.25117 39.1227 1.10919 38.8897 1.10919L38.8908 1.10989Z" fill="#1E3769"/>
<path d="M40.1361 0.877441H40.4618L40.6065 1.92248C40.6108 2.05174 40.6241 2.18057 40.6463 2.3081V2.72246C40.6861 2.61274 40.7462 2.48373 40.8127 2.34175C40.8793 2.19977 40.9325 2.09636 40.9658 2.03851L41.6341 0.877441H42.0003L40.6217 3.35488C40.5355 3.52801 40.413 3.6818 40.262 3.80641C40.1374 3.89739 39.9837 3.94305 39.8278 3.93542C39.7331 3.93574 39.6389 3.92275 39.5481 3.89686V3.6129C39.6342 3.62546 39.7218 3.62546 39.8079 3.6129C39.9101 3.61418 40.0094 3.57984 40.0876 3.51614C40.178 3.4352 40.2524 3.33898 40.3072 3.23219L40.4603 2.97417L40.1361 0.877441Z" fill="#1E3769"/>
</g>
<defs>
<clipPath id="clip0_886_648">
<rect width="42" height="13" fill="white" transform="translate(0.000732422)"/>
</clipPath>
</defs>
</svg>
