<svg width="1440" height="3003" viewBox="0 0 1440 3003" fill="none" xmlns="http://www.w3.org/2000/svg">
<g clip-path="url(#clip0_159_845)">
<rect width="1440" height="3003" fill="url(#paint0_linear_159_845)"/>
<path d="M66.5718 1614.17C114.748 1302.35 338.497 689.674 848.082 733.606C1357.67 777.538 1435.8 591.663 1440 281.763" stroke="#D69009"/>
<path d="M81.9346 3003C129.572 2726.6 350.818 2183.54 854.703 2222.48C1358.59 2261.42 1435.85 2096.67 1440 1821.98" stroke="#D69009"/>
<path d="M33.7979 1475.01C83.0878 1135.89 312.009 469.607 833.374 517.384C1354.74 565.16 1434.68 363.019 1438.98 26.0003" stroke="#D69009"/>
<path d="M50.1851 2879.82C98.9002 2579 325.152 1987.94 840.437 2030.33C1355.72 2072.71 1434.73 1893.39 1438.98 1594.43" stroke="#D69009"/>
<path d="M0 1334.9C48.1044 1013.83 271.519 383.002 780.345 428.236C1289.17 473.47 1367.19 282.085 1371.38 -37" stroke="#D69009"/>
<path d="M16.3867 2755.7C63.9522 2470.94 284.864 1911.45 787.99 1951.57C1291.11 1991.69 1368.26 1821.95 1372.4 1538.95" stroke="#D69009"/>
</g>
<defs>
<linearGradient id="paint0_linear_159_845" x1="0" y1="1501.5" x2="1440" y2="1501.5" gradientUnits="userSpaceOnUse">
<stop offset="0.594" stop-color="white"/>
<stop offset="1" stop-color="#FCC694"/>
</linearGradient>
<clipPath id="clip0_159_845">
<rect width="1440" height="3003" fill="white"/>
</clipPath>
</defs>
</svg>
