<?xml version="1.0" standalone="no"?>
<!DOCTYPE svg PUBLIC "-//W3C//DTD SVG 20010904//EN"
 "http://www.w3.org/TR/2001/REC-SVG-20010904/DTD/svg10.dtd">
<svg version="1.0" xmlns="http://www.w3.org/2000/svg"
 width="361.000000pt" height="374.000000pt" viewBox="0 0 361.000000 374.000000"
 preserveAspectRatio="xMidYMid meet">

<g transform="translate(0.000000,374.000000) scale(0.100000,-0.100000)"
fill="#000000" stroke="none">
<path d="M1758 3473 c-8 -10 -18 -30 -22 -45 -3 -16 -13 -28 -21 -28 -25 0
-27 -20 -1 -29 32 -13 38 -37 34 -124 l-3 -72 30 0 c29 0 30 1 25 40 -7 59 -6
142 2 150 4 4 42 4 84 -1 90 -11 113 -29 78 -65 -21 -20 -22 -20 -48 -4 -42
28 -52 7 -26 -53 26 -60 45 -79 84 -84 37 -4 46 19 12 32 -43 16 -44 39 -3 74
20 17 37 40 39 51 5 26 48 24 171 -6 97 -24 140 -49 120 -70 -10 -10 -23 -10
-60 -2 -53 13 -63 10 -63 -16 0 -11 -9 -29 -20 -42 l-20 -24 -20 24 c-11 13
-20 34 -20 47 0 34 -19 39 -30 8 -13 -33 3 -90 30 -104 10 -6 32 -10 49 -10
25 0 36 8 56 40 22 34 28 39 45 30 29 -16 31 -26 10 -53 -27 -34 -25 -44 9
-61 34 -18 41 -13 41 30 0 42 35 123 56 131 18 7 155 -58 204 -96 20 -16 22
-22 13 -32 -10 -10 -17 -9 -35 8 -56 50 -129 67 -150 33 -7 -10 -6 -30 1 -57
10 -35 18 -45 56 -63 35 -17 45 -27 45 -46 0 -22 25 -44 50 -44 6 0 19 19 29
43 24 55 68 107 85 101 26 -10 27 17 2 47 -30 35 -31 42 -11 59 13 10 19 10
33 -4 21 -18 32 -12 32 16 0 24 -41 42 -75 34 -14 -4 -31 -18 -37 -31 -6 -14
-15 -25 -20 -25 -5 0 -53 22 -107 49 -116 59 -174 79 -358 126 -117 30 -144
41 -189 76 -76 59 -156 77 -186 42z m126 -44 c41 -32 33 -42 -29 -37 -64 5
-85 19 -65 43 18 21 63 19 94 -6z m634 -319 c37 -23 50 -46 34 -62 -24 -24
-135 43 -117 71 10 17 47 13 83 -9z"/>
<path d="M1440 3351 c-111 -30 -173 -50 -245 -81 -40 -17 -47 -17 -92 -4 -52
17 -115 13 -140 -7 -11 -10 -14 -25 -10 -60 l6 -47 -87 -70 c-168 -135 -345
-345 -397 -468 -18 -44 -10 -62 16 -38 15 14 26 16 46 8 35 -12 37 -24 9 -59
-23 -29 -24 -29 -64 -16 -36 12 -44 12 -67 -3 -15 -10 -25 -26 -25 -41 0 -28
12 -32 30 -10 22 26 56 18 85 -21 21 -27 33 -34 53 -32 28 3 31 13 17 68 -5
18 0 33 13 50 l20 25 24 -23 c24 -22 25 -22 43 -3 20 23 14 51 -11 51 -22 0
-124 70 -124 84 0 13 37 76 45 76 17 0 114 -75 123 -96 15 -32 28 -30 47 6 16
32 13 50 -9 50 -15 0 -126 78 -126 89 0 4 29 38 64 76 56 62 65 68 80 56 24
-20 19 -48 -11 -63 -36 -17 -36 -39 1 -56 49 -24 104 -27 126 -7 11 10 20 24
20 32 0 15 -26 18 -35 3 -7 -12 -25 -13 -43 -1 -10 6 -11 13 -1 34 10 22 9 34
-5 66 -23 50 -16 64 67 129 81 65 115 81 128 61 13 -21 12 -24 -28 -54 -83
-61 -93 -99 -38 -141 21 -16 41 -24 52 -20 14 6 11 12 -17 41 -33 34 -33 35
-14 56 25 28 72 52 89 45 7 -2 16 -18 20 -35 9 -41 18 -45 49 -20 l26 21 -22
18 c-13 10 -36 43 -53 75 l-30 56 24 20 c41 34 67 25 98 -33 15 -29 30 -64 33
-77 7 -32 22 -36 50 -13 l23 18 -26 26 c-29 29 -67 99 -67 123 0 17 65 51 119
61 45 9 54 -21 15 -53 -34 -27 -28 -34 50 -58 33 -10 54 -12 66 -5 10 6 30 14
44 20 23 8 25 7 23 -13 -2 -18 3 -22 26 -20 16 1 35 7 43 14 13 10 13 14 0 28
-15 17 -35 89 -36 129 0 17 7 24 30 29 33 6 36 27 4 30 -10 1 -66 -11 -124
-26z m38 -33 c36 -36 -18 -123 -72 -116 -15 2 -26 6 -26 11 0 4 0 25 0 47 0
33 5 42 28 54 33 19 54 20 70 4z m-404 -87 c7 -10 -22 -37 -50 -45 -29 -9 -52
18 -34 39 13 16 75 21 84 6z"/>
<path d="M2166 3071 c-4 -5 -2 -12 3 -15 5 -4 12 -2 15 3 4 5 2 12 -3 15 -5 4
-12 2 -15 -3z"/>
<path d="M2895 3030 c-3 -6 -4 -24 0 -40 8 -36 -5 -39 -45 -10 -53 38 -44 1
15 -61 54 -56 66 -87 38 -96 -7 -3 -21 14 -33 36 -50 100 -163 103 -147 5 4
-22 19 -50 36 -68 18 -19 31 -44 33 -65 6 -62 27 -60 95 8 34 33 66 61 72 61
14 0 122 -153 119 -169 -6 -28 -27 -21 -44 14 -19 40 -58 75 -85 75 -20 0 -49
-36 -49 -61 0 -9 13 -36 30 -60 28 -42 28 -44 9 -51 -19 -7 -19 -9 -4 -38 8
-16 19 -30 22 -30 4 0 19 12 35 26 26 26 28 26 53 10 14 -9 25 -26 25 -37 0
-17 -4 -20 -24 -15 -32 8 -43 -10 -20 -35 33 -36 94 -14 94 34 0 15 -8 42 -17
62 -31 65 14 60 47 -6 14 -27 25 -38 32 -31 12 12 -15 66 -106 212 -86 137
-90 146 -77 194 6 26 6 46 0 58 -13 23 -29 14 -29 -16 0 -13 -6 -29 -14 -35
-12 -10 -15 0 -23 60 -7 68 -22 94 -38 69z m-107 -176 c-15 -15 -16 -15 -23 5
-9 31 4 46 23 27 15 -15 15 -17 0 -32z m61 -50 c3 -16 1 -17 -13 -5 -19 16
-21 34 -3 29 6 -3 14 -13 16 -24z m133 -141 c22 -25 31 -60 18 -68 -15 -9 -60
33 -60 55 0 33 19 39 42 13z"/>
<path d="M1684 2869 c-3 -6 6 -21 21 -33 17 -14 25 -27 21 -35 -4 -6 4 -25 19
-43 16 -19 23 -34 16 -36 -16 -5 -13 -21 10 -50 18 -24 19 -27 4 -38 -14 -11
-14 -14 2 -42 15 -25 15 -34 5 -54 -7 -13 -11 -39 -10 -58 2 -25 -1 -35 -12
-35 -12 0 -16 -16 -18 -67 -2 -38 -6 -68 -11 -68 -4 0 -5 39 -3 86 3 56 1 89
-7 97 -6 6 -11 31 -11 55 0 30 -4 42 -12 39 -8 -2 -17 11 -24 32 -7 24 -15 35
-26 33 -17 -3 -22 8 -33 71 -7 41 -22 49 -27 15 -4 -30 -29 -29 -44 0 -16 33
-22 36 -38 23 -12 -10 -20 -10 -38 3 -24 17 -58 21 -58 7 0 -5 28 -27 63 -49
84 -55 161 -136 187 -196 11 -27 18 -51 15 -54 -6 -6 -2 -11 -49 60 -56 87
-117 127 -232 154 -76 17 -117 12 -112 -14 3 -13 12 -16 44 -14 31 3 43 -1 48
-13 5 -14 14 -16 41 -11 27 5 35 4 35 -8 0 -8 -5 -18 -10 -21 -21 -13 3 -25
35 -19 29 5 39 1 70 -29 33 -32 35 -36 18 -46 -16 -9 -14 -11 15 -21 17 -7 32
-19 32 -27 0 -9 10 -32 22 -52 20 -34 21 -35 2 -18 -12 9 -26 17 -32 17 -6 0
-16 9 -22 20 -6 11 -20 20 -31 20 -11 0 -23 10 -29 24 -12 31 -29 41 -36 22
-9 -23 -24 -20 -56 11 -23 22 -30 24 -43 13 -12 -10 -19 -9 -40 4 -30 20 -35
20 -35 1 0 -19 -23 -19 -60 0 -17 9 -31 12 -31 8 -1 -5 -2 -15 -3 -23 -1 -10
-14 -16 -38 -18 -25 -2 -41 -10 -49 -23 -5 -11 -22 -24 -35 -30 -16 -6 -24
-15 -22 -26 5 -27 37 -27 65 -1 13 12 33 22 44 20 10 -2 29 4 41 12 30 21 41
20 33 -4 -8 -26 11 -26 50 0 42 28 55 25 55 -10 l0 -30 33 20 c41 25 53 25 60
-1 4 -15 11 -20 22 -15 17 6 58 -19 113 -68 42 -39 41 -54 -1 -21 -30 22 -45
25 -127 28 -69 2 -93 0 -97 -10 -3 -7 -15 -13 -28 -13 -12 0 -28 -7 -35 -15
-7 -8 -22 -15 -34 -15 -24 0 -46 -17 -46 -36 0 -6 12 -19 26 -29 25 -16 27
-16 48 4 13 12 30 19 38 16 9 -4 29 5 46 19 36 31 42 32 42 8 0 -31 11 -33 42
-7 36 30 53 33 38 6 -15 -29 3 -34 34 -10 25 20 46 19 46 -3 0 -7 9 -22 21
-34 l20 -22 -25 -51 c-14 -27 -26 -62 -26 -76 0 -47 -14 -46 -290 14 -138 30
-147 34 -185 71 -23 22 -45 40 -51 40 -6 0 -36 -18 -67 -40 -30 -22 -66 -40
-79 -40 -53 0 -103 -24 -154 -71 -83 -79 -92 -124 -37 -189 15 -18 34 -46 42
-64 14 -27 21 -31 51 -29 19 1 49 5 66 8 22 5 40 1 64 -13 27 -17 44 -20 99
-15 56 5 70 2 91 -15 21 -17 25 -29 28 -98 5 -86 -13 -242 -33 -290 -9 -23
-24 -35 -49 -44 -27 -8 -42 -22 -56 -51 -14 -26 -27 -39 -41 -39 -57 0 -107
-60 -82 -99 9 -14 77 -16 654 -19 737 -3 1159 7 1184 28 17 14 17 65 1 102 -7
15 4 23 56 47 89 42 123 84 149 184 22 88 -26 217 -113 306 -151 154 -385 239
-623 228 -143 -7 -390 7 -410 23 -39 32 6 150 60 160 26 5 30 10 27 33 -4 36
18 35 62 -3 40 -35 54 -25 31 21 -23 44 -10 48 29 10 32 -31 35 -32 44 -15 5
11 7 26 5 34 -2 8 12 -3 32 -25 32 -37 36 -38 46 -22 10 18 13 17 40 -9 23
-22 29 -24 29 -11 0 25 17 21 36 -8 17 -26 38 -32 50 -14 11 18 -46 68 -120
104 -63 32 -76 35 -158 35 -86 0 -88 1 -78 20 6 11 21 20 34 20 13 0 29 7 36
15 9 11 22 14 42 10 24 -6 29 -3 38 19 11 30 19 32 46 11 27 -20 44 -18 44 5
0 30 15 24 49 -17 32 -39 44 -33 39 17 -5 38 24 31 47 -12 25 -47 35 -48 35
-3 0 24 5 35 14 35 22 0 56 -49 62 -92 9 -52 24 -48 24 7 0 80 34 48 46 -43 3
-29 10 -52 14 -52 10 0 20 37 20 72 0 35 13 42 34 19 13 -14 17 -34 15 -75 -3
-67 4 -78 26 -37 25 49 45 40 45 -19 0 -54 1 -55 30 -40 16 9 21 6 26 -15 3
-13 1 -38 -5 -55 -9 -26 -8 -32 7 -37 9 -4 20 -11 24 -17 4 -5 12 3 20 20 7
16 19 34 27 40 11 9 7 19 -23 59 -27 35 -34 51 -26 59 8 8 2 18 -22 38 -29 24
-32 29 -21 47 14 23 11 26 -34 36 -39 8 -43 31 -8 47 54 25 9 39 -54 17 -25
-9 -35 -9 -44 1 -9 9 -3 19 27 46 32 28 36 35 22 40 -11 4 -33 -5 -61 -25 -46
-33 -69 -38 -81 -19 -5 7 10 26 36 49 24 21 41 41 38 44 -7 7 -77 -26 -120
-56 -41 -30 -43 -5 -3 39 68 76 38 76 -61 1 -28 -22 -56 -39 -62 -39 -20 0
-23 19 -7 44 11 17 13 26 5 31 -7 4 -30 -14 -56 -41 l-44 -49 -27 29 c-20 22
-24 32 -16 45 8 12 6 24 -9 49 -11 18 -18 35 -15 38 3 3 21 -1 40 -10 40 -16
51 -12 36 16 -16 30 -2 34 30 10 32 -24 41 -20 41 17 l0 25 33 -32 c32 -31 51
-34 41 -7 -10 24 17 27 42 4 23 -22 24 -22 44 -4 11 10 18 27 16 39 -3 18 -9
21 -42 18 -28 -3 -42 1 -51 14 -12 16 -17 17 -49 5 -41 -15 -53 -8 -36 19 20
33 -6 34 -44 1 -43 -38 -56 -39 -52 -3 5 44 -15 40 -38 -8 -24 -50 -51 -61
-46 -18 5 48 -16 40 -36 -14 -21 -55 -45 -70 -50 -30 -5 34 -22 26 -22 -10 0
-18 -4 -40 -10 -48 -8 -12 -10 -12 -16 3 -10 28 -24 9 -24 -35 0 -36 -2 -40
-21 -35 -18 5 -20 2 -15 -19 5 -17 2 -26 -9 -30 -25 -10 -27 0 -9 52 11 33 13
49 5 52 -18 6 -13 37 9 57 24 21 18 35 -11 28 -22 -6 -23 -2 -8 57 3 10 -2 14
-15 12 -21 -4 -36 13 -36 43 0 20 -69 85 -89 85 -5 0 -13 -5 -17 -11z m351
-289 c-3 -5 -13 -10 -21 -10 -8 0 -12 5 -9 10 3 6 13 10 21 10 8 0 12 -4 9
-10z m-35 -59 c5 -11 10 -29 10 -41 0 -33 -38 -80 -64 -80 -13 0 -31 -12 -44
-30 -13 -16 -30 -30 -40 -30 -9 0 -24 -11 -32 -24 -8 -13 -28 -43 -44 -66 -28
-39 -29 -43 -12 -52 17 -9 17 -11 -2 -31 -20 -22 -39 -77 -44 -127 -2 -14 -9
-25 -18 -25 -49 0 7 170 92 283 23 29 48 67 57 85 9 17 29 38 44 45 22 11 26
17 17 27 -9 11 -6 17 14 30 14 10 23 21 20 26 -3 5 -2 14 1 19 10 16 34 11 45
-9z m80 -56 c0 -2 -10 -10 -22 -16 -21 -11 -22 -11 -9 4 13 16 31 23 31 12z
m-390 -32 c0 -10 3 -29 7 -43 3 -14 3 -22 -1 -18 -12 11 -25 78 -15 78 5 0 9
-8 9 -17z m120 -33 c-7 -17 -14 -29 -16 -27 -2 2 1 18 7 36 6 18 14 30 17 27
2 -3 -1 -19 -8 -36z m-90 -147 c-38 -126 -83 -223 -102 -223 -28 0 26 146 72
195 11 12 20 29 20 38 0 9 4 17 9 17 6 0 6 -11 1 -27z m-650 -115 c26 -56 25
-64 -7 -94 -23 -21 -25 -27 -13 -34 31 -20 58 -11 65 20 4 17 10 30 14 30 16
0 75 -95 111 -179 80 -189 132 -234 170 -147 10 25 30 52 44 62 14 9 26 24 26
33 0 44 63 56 97 19 50 -54 82 -138 53 -138 -17 0 -11 -22 12 -47 18 -20 19
-23 5 -23 -22 0 -21 -12 3 -43 26 -33 25 -37 -7 -37 l-28 -1 28 -20 c32 -24
36 -49 7 -49 -11 0 -20 -3 -20 -6 0 -3 9 -17 20 -31 11 -14 20 -34 20 -43 0
-13 -6 -17 -20 -13 -25 7 -25 -4 0 -42 17 -26 17 -31 5 -45 -12 -13 -13 -22
-3 -48 15 -39 7 -48 -25 -27 -22 14 -25 14 -30 0 -8 -19 -31 -19 -48 1 -11 14
-14 13 -29 -7 -19 -24 -40 -18 -40 11 0 21 36 50 62 50 9 0 19 4 23 9 9 16
-30 115 -66 167 -18 27 -35 64 -39 84 -4 28 -10 34 -26 32 -12 -1 -30 9 -44
25 -21 24 -25 25 -28 10 -2 -9 7 -34 19 -55 l23 -37 -47 43 c-71 64 -92 55
-34 -14 32 -37 57 -76 57 -88 0 -15 -18 -2 -44 33 -22 31 -37 40 -70 45 -70
12 -86 28 -86 91 l0 54 41 -14 c47 -17 93 -20 84 -5 -3 5 -24 15 -46 22 -42
12 -79 50 -98 102 -9 22 -14 26 -25 17 -11 -10 -28 2 -85 57 -65 64 -71 73
-71 111 0 46 -11 52 -33 17 -15 -22 -14 -48 1 -86 3 -8 6 -24 6 -35 1 -14 10
-21 31 -25 28 -6 27 -7 -19 -17 -27 -6 -55 -9 -63 -6 -7 3 -31 -7 -52 -22
l-39 -27 -22 22 c-24 24 -20 50 7 50 49 0 85 62 43 75 -25 8 -35 46 -21 73 14
27 14 52 0 52 -15 0 -54 -50 -55 -71 -1 -9 -4 -21 -8 -27 -3 -6 -2 -13 4 -17
7 -4 6 -13 -1 -28 -17 -32 -17 -32 -39 -12 -29 26 -25 56 15 102 52 61 99 86
174 94 41 4 67 12 70 20 5 16 56 69 66 69 3 0 15 -19 25 -42z m190 -166 c11
-30 19 -57 16 -59 -4 -4 -86 143 -86 155 0 3 11 -5 25 -18 14 -13 34 -48 45
-78z m38 80 c7 -5 10 -16 6 -25 -8 -21 -20 -22 -28 -1 -13 33 -4 42 22 26z
m111 -22 c10 0 35 -11 56 -25 28 -20 40 -23 51 -14 10 8 19 6 40 -10 20 -16
30 -18 46 -10 15 8 24 5 48 -21 17 -18 30 -36 30 -41 0 -5 7 -9 16 -9 11 0 14
5 9 18 -24 57 -10 70 32 30 23 -21 23 -21 37 -2 14 18 15 18 33 1 23 -20 39
-22 46 -4 5 13 149 14 213 1 18 -3 34 -2 37 3 3 5 36 6 74 2 37 -4 76 -3 85 2
11 6 26 5 42 -2 20 -9 29 -9 41 1 14 12 25 4 86 -58 69 -71 82 -98 54 -108
-13 -5 -11 -12 10 -40 14 -18 25 -35 25 -38 0 -25 -99 44 -170 118 -41 42 -70
58 -70 38 0 -13 92 -107 155 -157 33 -26 84 -59 112 -72 91 -42 86 -64 -7 -33
-47 16 -83 39 -143 91 -44 38 -84 69 -88 69 -20 0 -5 -21 56 -78 46 -43 96
-76 172 -114 58 -29 105 -57 103 -63 -4 -13 -34 -8 -92 17 -25 11 -55 18 -65
16 -11 -3 17 -21 80 -52 107 -53 130 -83 55 -71 l-43 6 43 -38 c44 -40 59 -73
23 -53 -40 21 -42 5 -6 -38 30 -36 31 -45 4 -37 -17 6 -20 3 -19 -17 3 -38 1
-40 -22 -24 -30 21 -58 20 -58 -1 0 -15 -3 -14 -18 5 -16 21 -20 22 -31 8 -20
-24 -33 -19 -29 11 3 23 10 29 48 38 l45 11 3 50 c3 49 2 52 -63 123 -64 72
-69 83 -65 129 1 12 -4 22 -11 22 -6 0 -34 13 -60 30 -38 23 -49 26 -49 14 0
-8 14 -29 30 -46 37 -37 37 -39 2 -27 -76 26 -141 115 -142 192 0 21 -5 37
-11 37 -17 0 -4 -128 17 -173 20 -43 14 -55 -20 -39 -17 7 -36 36 -59 84 -33
72 -67 116 -67 87 0 -8 12 -36 25 -64 14 -27 25 -57 25 -66 0 -9 9 -28 21 -43
18 -23 19 -27 4 -32 -34 -13 -62 12 -86 81 -21 60 -49 104 -49 77 0 -25 34
-138 47 -159 15 -22 14 -23 -10 -23 -32 0 -36 6 -81 122 -21 54 -42 100 -47
104 -14 9 -10 -33 7 -74 9 -20 22 -59 29 -87 7 -27 14 -56 16 -64 7 -22 -19
-24 -38 -2 -10 12 -34 67 -53 123 -19 56 -41 104 -49 106 -11 4 -12 -1 -7 -19
28 -97 56 -223 51 -228 -13 -12 -53 52 -76 120 -13 38 -27 69 -31 69 -12 0
-10 -19 8 -100 18 -78 12 -101 -22 -82 -12 7 -22 32 -30 74 -21 112 -64 201
-166 343 -4 6 -13 2 -22 -10 -14 -20 -16 -19 -54 18 -42 41 -67 36 -38 -8 9
-13 16 -37 16 -52 l0 -27 -35 34 c-43 41 -53 35 -26 -16 28 -52 27 -66 -4 -58
-28 7 -34 -11 -14 -47 6 -12 8 -28 5 -36 -11 -29 -44 15 -56 74 -20 94 17 234
57 219 8 -3 23 -6 32 -6z m1113 -131 c14 -11 35 -19 47 -19 25 0 71 -20 71
-31 0 -5 19 -18 43 -30 45 -23 169 -144 192 -189 24 -47 38 -118 31 -165 -4
-25 -12 -45 -18 -45 -6 0 -8 13 -4 34 8 40 -17 144 -38 160 -9 6 -21 29 -28
51 -9 27 -20 41 -33 43 -11 2 -30 18 -43 37 -13 21 -30 35 -42 35 -12 0 -34
10 -50 21 -16 13 -36 19 -45 15 -9 -3 -28 0 -43 8 -30 15 -112 95 -112 108 0
10 31 -5 72 -33z m-1707 -9 c-3 -5 -10 -10 -16 -10 -5 0 -9 5 -9 10 0 6 7 10
16 10 8 0 12 -4 9 -10z m250 -90 c3 -5 -1 -10 -9 -10 -9 0 -16 5 -16 10 0 6 4
10 9 10 6 0 13 -4 16 -10z m1513 -39 c3 -8 -1 -12 -9 -9 -7 2 -15 10 -17 17
-3 8 1 12 9 9 7 -2 15 -10 17 -17z m145 -61 c76 -70 117 -136 124 -202 5 -51
4 -55 -37 -101 -36 -41 -47 -48 -74 -45 -31 3 -31 4 -38 69 -4 42 -16 86 -34
120 -21 41 -28 73 -32 132 -4 72 -3 77 16 77 11 0 45 -23 75 -50z m-133 -27
c0 -25 -1 -26 -16 -11 -9 9 -13 21 -10 27 13 20 26 11 26 -16z m-340 -113 c0
-5 -5 -10 -11 -10 -5 0 -7 5 -4 10 3 6 8 10 11 10 2 0 4 -4 4 -10z m85 -31 c0
-8 -10 -15 -22 -17 -25 -4 -30 7 -11 26 15 15 33 10 33 -9z m-117 -18 c15 -10
40 -21 55 -25 31 -7 27 -26 -5 -26 -23 0 -88 45 -88 61 0 13 9 11 38 -10z
m-958 -1 c36 -10 70 -51 70 -84 0 -22 -13 -20 -35 4 -24 27 -39 25 -31 -2 21
-76 21 -75 -1 -55 -30 26 -44 22 -33 -9 22 -56 6 -144 -22 -116 -19 19 -29 14
-26 -15 4 -35 -26 -44 -36 -11 l-7 23 -16 -22 c-19 -28 -33 -29 -33 -3 0 23
-4 24 -31 10 -27 -15 -25 5 3 24 12 9 30 16 40 16 28 0 50 53 69 169 13 80 24
89 89 71z m1140 -8 c0 -4 -12 -24 -26 -43 -14 -19 -36 -54 -47 -79 -17 -36
-22 -41 -25 -24 -2 12 3 37 11 55 23 56 87 122 87 91z m-522 -12 c37 1 101 3
142 4 l75 1 25 -46 c20 -40 23 -53 15 -85 -8 -32 -18 -43 -59 -66 -27 -14 -55
-37 -62 -51 -15 -28 -63 -37 -206 -37 -76 0 -89 2 -98 19 -11 22 -14 254 -3
265 4 4 29 4 55 1 27 -4 79 -6 116 -5z m360 -57 c21 -9 32 -20 32 -34 0 -16
-4 -19 -20 -14 -25 8 -26 -11 -3 -38 17 -18 17 -19 -1 -29 -12 -7 -16 -17 -12
-33 4 -15 1 -25 -9 -29 -8 -3 -15 -12 -15 -20 0 -22 -17 -28 -41 -16 -15 9
-24 9 -32 1 -17 -17 -34 -13 -40 10 -4 15 -11 20 -22 15 -11 -4 -15 -2 -13 6
3 7 23 15 46 18 34 4 45 11 57 34 8 15 12 33 9 38 -4 5 -1 20 6 32 10 19 8 28
-14 61 -37 54 -34 73 7 39 17 -15 47 -33 65 -41z m258 -9 c43 -45 52 -78 29
-104 -10 -11 -28 -20 -40 -20 -14 0 -33 -13 -49 -35 -26 -34 -29 -35 -97 -35
-38 0 -69 3 -69 6 0 3 15 25 34 50 19 25 38 59 41 77 9 42 62 97 93 97 15 0
38 -14 58 -36z m-1001 -12 c-6 -7 -35 18 -35 31 0 5 9 2 20 -8 11 -10 18 -20
15 -23z m-114 -19 c-5 -10 -17 -43 -26 -73 -21 -63 -40 -90 -67 -90 -45 0 -24
60 50 143 36 39 58 49 43 20z m134 -58 c0 -29 -21 -28 -56 3 -22 20 -30 34
-26 46 6 15 10 14 44 -7 21 -14 38 -32 38 -42z m1360 46 c-3 -6 -11 -11 -17
-11 -6 0 -6 6 2 15 14 17 26 13 15 -4z m-1443 -68 c21 -19 24 -53 5 -53 -21 0
-50 37 -44 55 8 19 16 19 39 -2z m1367 -4 c-16 -10 -23 -4 -14 10 3 6 11 8 17
5 6 -4 5 -9 -3 -15z m-69 -14 c10 -12 10 -15 -4 -15 -9 0 -16 7 -16 15 0 8 2
15 4 15 2 0 9 -7 16 -15z m-256 -122 c68 -16 68 -16 41 -31 -22 -11 -33 -12
-52 -3 -14 7 -34 9 -45 5 -10 -3 -25 0 -33 6 -12 10 -20 9 -41 -5 -24 -16 -26
-16 -39 1 -12 17 -14 17 -37 2 -23 -15 -26 -15 -41 0 -15 14 -18 14 -35 -1
-23 -21 -32 -21 -47 -1 -10 14 -14 15 -33 3 -17 -11 -26 -11 -41 -2 -15 9 -22
8 -39 -10 -21 -20 -22 -21 -35 -3 -12 16 -19 17 -43 9 -18 -6 -38 -7 -53 -1
-15 5 -28 4 -37 -3 -11 -9 -18 -8 -29 1 -12 10 -21 10 -42 1 -23 -11 -29 -10
-40 5 -10 14 -15 15 -28 4 -14 -11 -20 -11 -37 -1 -17 11 -23 9 -42 -8 -26
-25 -46 -27 -46 -6 0 18 -2 18 -35 3 -21 -10 -28 -9 -35 2 -7 12 -12 11 -30
-5 -21 -19 -23 -19 -35 -2 -15 21 -31 22 -39 2 -3 -8 -17 -15 -30 -15 -19 0
-27 7 -32 26 l-7 26 -23 -29 c-23 -27 -24 -27 -39 -9 -15 19 -15 19 -40 -4
-20 -19 -25 -20 -25 -7 0 25 -19 30 -47 12 -23 -15 -27 -16 -41 -1 -14 14 -17
14 -34 -1 -17 -15 -19 -15 -38 2 -19 17 -21 17 -38 2 -25 -23 -39 -21 -45 5
l-6 22 -24 -22 c-30 -28 -39 -28 -35 1 3 22 4 22 150 19 97 -2 148 0 153 7 4
8 159 11 507 11 275 -1 503 1 506 4 12 13 171 5 236 -11z m233 -10 c7 -21 -36
-37 -65 -23 l-26 11 25 14 c28 16 61 15 66 -2z m-109 -24 c-12 -7 -24 -7 -35
0 -15 9 -12 10 17 10 29 0 32 -1 18 -10z"/>
<path d="M1005 2110 c-20 -39 -12 -53 21 -38 19 9 24 18 22 37 -4 36 -24 37
-43 1z"/>
<path d="M940 2046 c0 -9 7 -16 16 -16 17 0 14 22 -4 28 -7 2 -12 -3 -12 -12z"/>
<path d="M845 2041 c-8 -15 3 -31 21 -31 9 0 14 7 12 17 -4 20 -24 28 -33 14z"/>
<path d="M1037 1964 c-11 -12 3 -24 29 -24 15 0 24 6 24 15 0 15 -40 21 -53 9z"/>
<path d="M1150 1946 c0 -19 68 -197 82 -213 6 -7 19 -13 29 -13 16 0 15 8 -15
78 -18 43 -43 97 -55 120 -21 42 -41 55 -41 28z"/>
<path d="M1050 1900 c0 -5 11 -10 25 -10 14 0 25 5 25 10 0 6 -11 10 -25 10
-14 0 -25 -4 -25 -10z"/>
<path d="M1536 1831 c-9 -14 43 -56 55 -44 8 8 4 17 -12 32 -25 23 -35 26 -43
12z"/>
<path d="M1500 1771 c0 -17 50 -61 70 -61 29 0 25 25 -9 49 -30 21 -61 28 -61
12z"/>
<path d="M1470 1726 c0 -18 45 -73 71 -87 17 -8 19 -6 19 21 0 24 -8 35 -40
55 -46 29 -50 30 -50 11z"/>
<path d="M1406 1681 c-3 -4 8 -20 24 -35 17 -14 30 -31 30 -38 0 -18 71 -158
81 -158 20 0 19 24 -4 74 -28 61 -25 77 10 44 17 -16 26 -19 34 -11 14 14 -18
46 -97 98 -54 36 -69 41 -78 26z"/>
<path d="M1216 1622 c-3 -6 -1 -14 5 -17 15 -10 25 3 12 16 -7 7 -13 7 -17 1z"/>
<path d="M1590 1419 c0 -5 5 -7 10 -4 6 3 10 8 10 11 0 2 -4 4 -10 4 -5 0 -10
-5 -10 -11z"/>
<path d="M1360 1960 c0 -5 5 -10 11 -10 5 0 7 5 4 10 -3 6 -8 10 -11 10 -2 0
-4 -4 -4 -10z"/>
<path d="M1610 1924 c0 -21 39 -94 50 -94 14 0 12 13 -6 59 -16 40 -44 63 -44
35z"/>
<path d="M2000 1897 c0 -33 25 -65 40 -51 9 9 8 19 -4 43 -19 37 -36 40 -36 8z"/>
<path d="M1930 1891 c0 -26 10 -51 21 -51 10 0 12 31 3 54 -9 22 -24 20 -24
-3z"/>
<path d="M2095 1873 c4 -21 14 -51 23 -68 16 -30 16 -30 20 -6 6 36 -18 111
-35 111 -12 0 -14 -8 -8 -37z"/>
<path d="M1845 1890 c-8 -13 16 -62 33 -68 14 -4 16 17 2 52 -10 27 -24 33
-35 16z"/>
<path d="M2172 1883 c5 -25 28 -28 28 -4 0 12 -6 21 -16 21 -9 0 -14 -7 -12
-17z"/>
<path d="M2350 1890 c0 -17 81 -100 97 -100 20 0 14 11 -35 64 -41 45 -62 57
-62 36z"/>
<path d="M1320 1880 c0 -5 5 -10 10 -10 6 0 10 5 10 10 0 6 -4 10 -10 10 -5 0
-10 -4 -10 -10z"/>
<path d="M1715 1857 c-4 -10 -5 -21 -1 -24 10 -10 18 4 13 24 -4 17 -4 17 -12
0z"/>
<path d="M2260 1695 c7 -8 19 -15 27 -15 13 0 13 3 3 15 -7 8 -19 15 -27 15
-13 0 -13 -3 -3 -15z"/>
<path d="M1205 1480 c-3 -5 3 -10 15 -10 12 0 18 5 15 10 -3 6 -10 10 -15 10
-5 0 -12 -4 -15 -10z"/>
<path d="M1196 1323 c-11 -11 -6 -23 9 -23 8 0 15 4 15 9 0 13 -16 22 -24 14z"/>
<path d="M3150 2275 c-16 -19 -6 -45 18 -45 29 0 48 26 32 45 -16 19 -34 19
-50 0z"/>
<path d="M404 2265 c-9 -22 22 -53 37 -38 15 15 7 47 -14 51 -9 2 -20 -4 -23
-13z"/>
<path d="M3302 2138 c-7 -7 -47 -30 -90 -53 -106 -55 -105 -71 8 -103 115 -33
125 -33 125 -2 0 20 -5 25 -23 23 -16 -2 -25 4 -33 24 -11 29 -5 39 26 45 15
3 19 11 18 32 -3 36 -15 50 -31 34z m-56 -99 c10 -17 -13 -36 -27 -22 -12 12
-4 33 11 33 5 0 12 -5 16 -11z"/>
<path d="M267 2113 c-9 -8 -9 -68 -1 -76 3 -3 14 -1 24 5 25 16 52 3 48 -24
-2 -15 -13 -26 -33 -31 -50 -15 -60 -23 -60 -47 0 -30 25 -38 32 -11 7 27 37
27 88 1 22 -11 47 -20 57 -20 28 0 47 40 50 109 l3 64 -77 3 c-49 1 -85 8
-100 18 -14 9 -28 13 -31 9z m171 -104 c4 -43 -19 -69 -43 -49 -18 15 -20 61
-3 78 22 22 43 9 46 -29z"/>
<path d="M3134 1856 c-11 -30 0 -61 21 -58 106 14 135 14 160 -2 22 -14 26
-15 31 -2 3 8 4 25 2 37 -3 21 -7 22 -90 20 -52 -1 -89 2 -93 8 -9 15 -25 14
-31 -3z"/>
<path d="M425 1824 c-15 -11 -40 -14 -95 -12 l-75 3 -3 -71 c-2 -60 0 -73 17
-88 11 -10 27 -16 36 -12 14 5 13 9 -5 34 -29 40 -24 76 13 80 23 3 27 0 27
-22 0 -31 8 -36 39 -25 20 8 21 11 10 25 -11 14 -10 18 6 30 26 20 34 18 47
-12 9 -19 9 -33 1 -55 -12 -32 -2 -47 17 -24 14 17 10 139 -5 154 -6 6 -18 4
-30 -5z"/>
<path d="M3156 1698 c-27 -25 -61 -120 -52 -144 4 -11 14 -14 30 -10 28 7 124
-20 148 -41 15 -13 18 -12 32 16 18 34 21 123 6 152 -27 49 -122 65 -164 27z
m125 -47 c30 -31 35 -46 20 -70 -16 -25 -161 9 -161 38 0 5 9 20 21 35 29 37
81 36 120 -3z"/>
<path d="M412 1578 c-6 -6 -17 -38 -23 -71 -12 -61 -29 -78 -54 -57 -19 16
-19 45 1 75 15 23 15 25 0 31 -32 12 -49 -16 -41 -71 7 -59 28 -85 65 -85 36
0 54 23 74 93 17 59 25 67 45 43 8 -10 9 -21 1 -42 -15 -37 -6 -56 20 -46 25
9 24 8 16 71 -5 38 -11 50 -32 59 -32 15 -57 15 -72 0z"/>
<path d="M3070 1450 c-14 -25 -5 -40 23 -40 12 0 30 -7 41 -15 18 -14 18 -15
-5 -24 -13 -5 -41 -12 -61 -16 -28 -4 -42 -13 -53 -35 -15 -28 -6 -48 15 -35
12 7 109 -33 136 -57 27 -24 43 -23 53 5 12 30 6 37 -30 37 -37 0 -69 16 -69
35 0 15 12 19 75 30 45 8 75 22 75 35 0 10 -84 50 -106 50 -7 0 -26 11 -42 25
-36 30 -38 30 -52 5z"/>
<path d="M541 1361 c-15 -27 -90 -61 -136 -61 -19 0 -37 -4 -40 -10 -7 -11 57
-154 74 -165 7 -4 19 -1 27 6 13 11 12 15 -10 33 -36 30 -44 71 -17 86 27 14
43 4 39 -23 -2 -17 1 -21 17 -19 11 2 26 10 34 17 13 13 12 17 -2 33 -15 16
-15 19 3 30 11 7 22 12 25 12 10 0 36 -63 31 -76 -7 -18 21 -31 36 -16 13 13
-8 73 -46 136 -23 39 -24 39 -35 17z"/>
<path d="M2940 1185 c-18 -22 -6 -42 32 -49 18 -3 57 -24 87 -47 29 -22 54
-39 56 -37 1 2 7 13 14 25 10 20 6 24 -63 62 -41 22 -78 45 -81 51 -9 15 -31
12 -45 -5z"/>
<path d="M640 1115 c-19 -20 -58 -47 -87 -61 -29 -13 -53 -28 -53 -33 0 -5 9
-19 19 -32 l19 -24 31 29 c53 51 84 11 35 -46 -30 -37 -30 -83 1 -83 12 0 21
8 23 20 6 29 42 65 67 65 30 0 65 28 65 52 0 27 -25 78 -58 117 l-27 32 -35
-36z m70 -60 c18 -22 8 -50 -19 -50 -28 0 -47 25 -38 49 8 20 40 21 57 1z"/>
<path d="M2742 937 l-53 -54 82 -82 83 -82 18 23 c17 23 17 23 -20 55 l-37 33
25 19 c20 16 22 21 11 35 -17 21 -38 20 -49 -1 -11 -19 -42 -11 -42 11 0 14
48 60 71 68 17 6 2 28 -19 28 -10 0 -41 -24 -70 -53z"/>
<path d="M813 943 c-3 -10 -21 -58 -39 -106 -19 -49 -31 -93 -28 -99 9 -14 46
-2 105 33 28 16 65 33 81 36 40 8 43 18 11 43 l-27 21 -19 -26 c-19 -26 -75
-60 -84 -52 -7 7 32 93 46 101 18 12 12 33 -14 50 -24 16 -26 16 -32 -1z"/>
<path d="M2574 796 c-22 -10 -36 -25 -44 -51 -39 -117 98 -218 182 -135 28 28
30 34 23 78 -4 26 -11 54 -15 62 -27 50 -92 70 -146 46z m78 -33 c22 -25 48
-79 48 -99 0 -18 -37 -64 -52 -64 -4 0 -26 16 -48 36 -48 43 -62 94 -35 124
22 25 67 26 87 3z"/>
<path d="M1027 773 c-2 -5 -7 -20 -11 -34 -3 -15 -26 -49 -51 -77 -25 -27 -45
-56 -45 -64 0 -15 91 -73 131 -83 17 -4 30 -1 38 9 17 21 5 36 -28 36 -16 0
-39 9 -52 19 -23 19 -23 21 -7 37 17 17 18 17 39 -2 21 -18 21 -18 35 1 19 25
18 32 -6 45 -24 13 -26 33 -5 50 13 11 21 8 50 -20 26 -25 38 -31 46 -23 19
19 4 38 -61 76 -67 40 -67 40 -73 30z"/>
<path d="M2267 622 c-10 -10 -17 -26 -17 -35 0 -21 -21 -67 -31 -67 -9 0 -19
26 -19 51 0 14 -7 19 -27 19 -16 0 -35 -5 -43 -10 -12 -8 -11 -12 7 -32 12
-13 30 -54 41 -93 15 -54 23 -71 39 -73 29 -4 48 22 28 38 -20 16 -19 49 1 57
9 3 28 -6 48 -26 33 -32 60 -38 86 -21 16 11 18 9 -64 73 -41 32 -44 49 -17
94 11 17 17 34 14 37 -11 11 -30 6 -46 -12z"/>
<path d="M1384 589 c-3 -5 -2 -14 1 -19 11 -18 -16 -110 -42 -141 l-25 -29 28
-10 c59 -23 122 -32 143 -20 20 10 24 21 35 85 3 17 8 42 11 57 6 23 3 29 -31
46 -53 27 -113 42 -120 31z m102 -50 c18 -20 18 -21 -1 -35 -22 -16 -25 -17
-44 -5 -12 8 -13 14 -3 35 14 31 23 32 48 5z m-25 -88 c20 -16 22 -23 13 -38
-14 -23 -41 -28 -59 -13 -18 15 -19 42 -3 58 16 16 22 15 49 -7z"/>
<path d="M1992 548 c-7 -9 -8 -19 -2 -28 12 -18 13 -80 3 -80 -5 0 -27 23 -51
50 -29 34 -51 50 -67 50 -33 0 -36 -10 -19 -61 9 -25 14 -67 12 -99 -3 -46 0
-55 15 -58 10 -2 25 -1 34 2 14 6 14 9 -1 31 -17 26 -22 80 -8 89 5 3 33 -19
62 -49 29 -30 57 -52 62 -49 5 3 8 45 7 92 -1 48 0 94 2 102 5 19 -34 25 -49
8z"/>
<path d="M1663 528 c-6 -7 -20 -34 -31 -60 -11 -26 -32 -63 -46 -81 -29 -38
-26 -47 16 -47 21 0 31 6 38 25 16 42 62 29 72 -20 3 -20 29 -31 52 -22 11 4
5 29 -23 109 -36 102 -55 125 -78 96z m31 -84 c7 -19 -1 -34 -19 -34 -21 0
-28 19 -15 35 16 19 26 19 34 -1z"/>
</g>
</svg>
